<svg xmlns="http://www.w3.org/2000/svg" width="17.778" height="21.071" viewBox="0 0 17.778 21.071">
  <g id="add-to-basket" transform="translate(-40)">
    <path id="Path_1" data-name="Path 1" d="M57.778,18.6a.823.823,0,0,1-.823.823h-.823v.823a.823.823,0,1,1-1.646,0v-.823h-.823a.823.823,0,1,1,0-1.646h.823v-.823a.823.823,0,1,1,1.646,0v.823h.823A.823.823,0,0,1,57.778,18.6Zm0-12.84v7.9a.823.823,0,0,1-1.646,0V6.585H54.486V9.054a.823.823,0,0,1-1.646,0V6.585h-7.9V9.054a.823.823,0,1,1-1.646,0V6.585H41.646v12.84h8.725a.823.823,0,1,1,0,1.646H40.823A.823.823,0,0,1,40,20.248V5.762a.823.823,0,0,1,.823-.823h2.508a5.6,5.6,0,0,1,11.116,0h2.508A.823.823,0,0,1,57.778,5.762Zm-4.994-.823a3.951,3.951,0,0,0-7.791,0Z" fill="#3498db"/>
  </g>
</svg>
