<svg width="28" height="28" viewBox="0 0 28 28" fill="none" xmlns="http://www.w3.org/2000/svg">
<path d="M20.9272 6.12437C20.03 5.21817 18.9629 4.49783 17.7869 4.0046C16.611 3.51137 15.3493 3.25494 14.0741 3.25H14C11.4141 3.25 8.93419 4.27723 7.10571 6.10571C5.27723 7.93419 4.25 10.4141 4.25 13V18.25C4.25 18.8467 4.48705 19.419 4.90901 19.841C5.33097 20.2629 5.90326 20.5 6.5 20.5H8C8.59674 20.5 9.16903 20.2629 9.59099 19.841C10.0129 19.419 10.25 18.8467 10.25 18.25V14.5C10.25 13.9033 10.0129 13.331 9.59099 12.909C9.16903 12.4871 8.59674 12.25 8 12.25H5.78375C5.92839 10.6862 6.51578 9.196 7.47709 7.9541C8.43839 6.71219 9.73377 5.77003 11.2114 5.23803C12.689 4.70603 14.2877 4.60624 15.82 4.95035C17.3524 5.29446 18.7548 6.06822 19.8631 7.18094C21.2177 8.54247 22.0509 10.3366 22.2172 12.25H20C19.4033 12.25 18.831 12.4871 18.409 12.909C17.9871 13.331 17.75 13.9033 17.75 14.5V18.25C17.75 18.8467 17.9871 19.419 18.409 19.841C18.831 20.2629 19.4033 20.5 20 20.5H22.25C22.25 21.0967 22.0129 21.669 21.591 22.091C21.169 22.5129 20.5967 22.75 20 22.75H14.75C14.5511 22.75 14.3603 22.829 14.2197 22.9697C14.079 23.1103 14 23.3011 14 23.5C14 23.6989 14.079 23.8897 14.2197 24.0303C14.3603 24.171 14.5511 24.25 14.75 24.25H20C20.9946 24.25 21.9484 23.8549 22.6517 23.1517C23.3549 22.4484 23.75 21.4946 23.75 20.5V13C23.7549 11.7246 23.5081 10.4608 23.0237 9.28093C22.5393 8.10108 21.8268 7.02841 20.9272 6.12437ZM8 13.75C8.19891 13.75 8.38968 13.829 8.53033 13.9697C8.67098 14.1103 8.75 14.3011 8.75 14.5V18.25C8.75 18.4489 8.67098 18.6397 8.53033 18.7803C8.38968 18.921 8.19891 19 8 19H6.5C6.30109 19 6.11032 18.921 5.96967 18.7803C5.82902 18.6397 5.75 18.4489 5.75 18.25V13.75H8ZM20 19C19.8011 19 19.6103 18.921 19.4697 18.7803C19.329 18.6397 19.25 18.4489 19.25 18.25V14.5C19.25 14.3011 19.329 14.1103 19.4697 13.9697C19.6103 13.829 19.8011 13.75 20 13.75H22.25V19H20Z" fill="#1F1F1F"/>
</svg>
